<svg width="80" height="80" viewBox="0 0 80 80" fill="none" xmlns="http://www.w3.org/2000/svg">
<rect x="0.5" y="0.5" width="79" height="79" rx="9.5" fill="white"/>
<rect x="0.5" y="0.5" width="79" height="79" rx="9.5" stroke="#D6D6D6"/>
<path d="M39.239 18.125C39.6346 18.125 39.9615 18.4188 40.0133 18.8001L40.0205 18.9061L40.0217 26.4583H47.5771C48.0085 26.4583 48.3583 26.8081 48.3583 27.2396C48.3583 27.6351 48.0644 27.962 47.6831 28.0138L47.5771 28.0208H40.0217L40.0238 35.572C40.0239 36.0034 39.6742 36.3534 39.2428 36.3534C38.8473 36.3534 38.5203 36.0597 38.4685 35.6783L38.4613 35.5723L38.4592 28.0208H30.9082C30.4767 28.0208 30.127 27.671 30.127 27.2396C30.127 26.8441 30.4209 26.5172 30.8022 26.4654L30.9082 26.4583H38.4592L38.458 18.9064C38.4579 18.4749 38.8076 18.125 39.239 18.125Z" fill="#D1D1D1"/>
<path d="M14.379 55.295H11.035L10.419 57H9.363L12.135 49.377H13.29L16.051 57H14.995L14.379 55.295ZM14.093 54.481L12.707 50.609L11.321 54.481H14.093ZM16.8851 53.964C16.8851 53.348 17.0098 52.809 17.2591 52.347C17.5084 51.8777 17.8494 51.5147 18.2821 51.258C18.7221 51.0013 19.2134 50.873 19.7561 50.873C20.2254 50.873 20.6618 50.983 21.0651 51.203C21.4684 51.4157 21.7764 51.698 21.9891 52.05V48.86H23.0011V57H21.9891V55.867C21.7911 56.2263 21.4978 56.5233 21.1091 56.758C20.7204 56.9853 20.2658 57.099 19.7451 57.099C19.2098 57.099 18.7221 56.967 18.2821 56.703C17.8494 56.439 17.5084 56.0687 17.2591 55.592C17.0098 55.1153 16.8851 54.5727 16.8851 53.964ZM21.9891 53.975C21.9891 53.5203 21.8974 53.1243 21.7141 52.787C21.5308 52.4497 21.2814 52.193 20.9661 52.017C20.6581 51.8337 20.3171 51.742 19.9431 51.742C19.5691 51.742 19.2281 51.83 18.9201 52.006C18.6121 52.182 18.3664 52.4387 18.1831 52.776C17.9998 53.1133 17.9081 53.5093 17.9081 53.964C17.9081 54.426 17.9998 54.8293 18.1831 55.174C18.3664 55.5113 18.6121 55.7717 18.9201 55.955C19.2281 56.131 19.5691 56.219 19.9431 56.219C20.3171 56.219 20.6581 56.131 20.9661 55.955C21.2814 55.7717 21.5308 55.5113 21.7141 55.174C21.8974 54.8293 21.9891 54.4297 21.9891 53.975ZM24.3187 53.964C24.3187 53.348 24.4434 52.809 24.6927 52.347C24.942 51.8777 25.283 51.5147 25.7157 51.258C26.1557 51.0013 26.647 50.873 27.1897 50.873C27.659 50.873 28.0954 50.983 28.4987 51.203C28.902 51.4157 29.21 51.698 29.4227 52.05V48.86H30.4347V57H29.4227V55.867C29.2247 56.2263 28.9314 56.5233 28.5427 56.758C28.154 56.9853 27.6994 57.099 27.1787 57.099C26.6434 57.099 26.1557 56.967 25.7157 56.703C25.283 56.439 24.942 56.0687 24.6927 55.592C24.4434 55.1153 24.3187 54.5727 24.3187 53.964ZM29.4227 53.975C29.4227 53.5203 29.331 53.1243 29.1477 52.787C28.9644 52.4497 28.715 52.193 28.3997 52.017C28.0917 51.8337 27.7507 51.742 27.3767 51.742C27.0027 51.742 26.6617 51.83 26.3537 52.006C26.0457 52.182 25.8 52.4387 25.6167 52.776C25.4334 53.1133 25.3417 53.5093 25.3417 53.964C25.3417 54.426 25.4334 54.8293 25.6167 55.174C25.8 55.5113 26.0457 55.7717 26.3537 55.955C26.6617 56.131 27.0027 56.219 27.3767 56.219C27.7507 56.219 28.0917 56.131 28.3997 55.955C28.715 55.7717 28.9644 55.5113 29.1477 55.174C29.331 54.8293 29.4227 54.4297 29.4227 53.975ZM36.0599 49.333V57H35.0589V49.333H36.0599ZM45.0149 50.862C45.4843 50.862 45.9023 50.961 46.2689 51.159C46.6356 51.3497 46.9253 51.6393 47.1379 52.028C47.3506 52.4167 47.4569 52.8897 47.4569 53.447V57H46.4669V53.59C46.4669 52.9887 46.3166 52.5303 46.0159 52.215C45.7226 51.8923 45.3229 51.731 44.8169 51.731C44.2963 51.731 43.8819 51.8997 43.5739 52.237C43.2659 52.567 43.1119 53.0473 43.1119 53.678V57H42.1219V53.59C42.1219 52.9887 41.9716 52.5303 41.6709 52.215C41.3776 51.8923 40.9779 51.731 40.4719 51.731C39.9513 51.731 39.5369 51.8997 39.2289 52.237C38.9209 52.567 38.7669 53.0473 38.7669 53.678V57H37.7659V50.972H38.7669V51.841C38.9649 51.5257 39.2289 51.2837 39.5589 51.115C39.8963 50.9463 40.2666 50.862 40.6699 50.862C41.1759 50.862 41.6233 50.9757 42.0119 51.203C42.4006 51.4303 42.6903 51.764 42.8809 52.204C43.0496 51.7787 43.3283 51.4487 43.7169 51.214C44.1056 50.9793 44.5383 50.862 45.0149 50.862ZM48.725 53.964C48.725 53.348 48.8496 52.809 49.099 52.347C49.3483 51.8777 49.6893 51.5147 50.122 51.258C50.562 51.0013 51.0496 50.873 51.585 50.873C52.113 50.873 52.5713 50.9867 52.96 51.214C53.3486 51.4413 53.6383 51.7273 53.829 52.072V50.972H54.841V57H53.829V55.878C53.631 56.23 53.334 56.5233 52.938 56.758C52.5493 56.9853 52.0946 57.099 51.574 57.099C51.0386 57.099 50.5546 56.967 50.122 56.703C49.6893 56.439 49.3483 56.0687 49.099 55.592C48.8496 55.1153 48.725 54.5727 48.725 53.964ZM53.829 53.975C53.829 53.5203 53.7373 53.1243 53.554 52.787C53.3706 52.4497 53.1213 52.193 52.806 52.017C52.498 51.8337 52.157 51.742 51.783 51.742C51.409 51.742 51.068 51.83 50.76 52.006C50.452 52.182 50.2063 52.4387 50.023 52.776C49.8396 53.1133 49.748 53.5093 49.748 53.964C49.748 54.426 49.8396 54.8293 50.023 55.174C50.2063 55.5113 50.452 55.7717 50.76 55.955C51.068 56.131 51.409 56.219 51.783 56.219C52.157 56.219 52.498 56.131 52.806 55.955C53.1213 55.7717 53.3706 55.5113 53.554 55.174C53.7373 54.8293 53.829 54.4297 53.829 53.975ZM59.0185 50.873C59.5392 50.873 59.9939 50.9867 60.3825 51.214C60.7785 51.4413 61.0719 51.7273 61.2625 52.072V50.972H62.2745V57.132C62.2745 57.682 62.1572 58.1697 61.9225 58.595C61.6879 59.0277 61.3505 59.365 60.9105 59.607C60.4779 59.849 59.9719 59.97 59.3925 59.97C58.6005 59.97 57.9405 59.783 57.4125 59.409C56.8845 59.035 56.5729 58.5253 56.4775 57.88H57.4675C57.5775 58.2467 57.8049 58.54 58.1495 58.76C58.4942 58.9873 58.9085 59.101 59.3925 59.101C59.9425 59.101 60.3899 58.9287 60.7345 58.584C61.0865 58.2393 61.2625 57.7553 61.2625 57.132V55.867C61.0645 56.219 60.7712 56.5123 60.3825 56.747C59.9939 56.9817 59.5392 57.099 59.0185 57.099C58.4832 57.099 57.9955 56.967 57.5555 56.703C57.1229 56.439 56.7819 56.0687 56.5325 55.592C56.2832 55.1153 56.1585 54.5727 56.1585 53.964C56.1585 53.348 56.2832 52.809 56.5325 52.347C56.7819 51.8777 57.1229 51.5147 57.5555 51.258C57.9955 51.0013 58.4832 50.873 59.0185 50.873ZM61.2625 53.975C61.2625 53.5203 61.1709 53.1243 60.9875 52.787C60.8042 52.4497 60.5549 52.193 60.2395 52.017C59.9315 51.8337 59.5905 51.742 59.2165 51.742C58.8425 51.742 58.5015 51.83 58.1935 52.006C57.8855 52.182 57.6399 52.4387 57.4565 52.776C57.2732 53.1133 57.1815 53.5093 57.1815 53.964C57.1815 54.426 57.2732 54.8293 57.4565 55.174C57.6399 55.5113 57.8855 55.7717 58.1935 55.955C58.5015 56.131 58.8425 56.219 59.2165 56.219C59.5905 56.219 59.9315 56.131 60.2395 55.955C60.5549 55.7717 60.8042 55.5113 60.9875 55.174C61.1709 54.8293 61.2625 54.4297 61.2625 53.975ZM69.4661 53.755C69.4661 53.9457 69.4551 54.1473 69.4331 54.36H64.6151C64.6518 54.954 64.8535 55.4197 65.2201 55.757C65.5941 56.087 66.0451 56.252 66.5731 56.252C67.0058 56.252 67.3651 56.153 67.6511 55.955C67.9445 55.7497 68.1498 55.4783 68.2671 55.141H69.3451C69.1838 55.7203 68.8611 56.1933 68.3771 56.56C67.8931 56.9193 67.2918 57.099 66.5731 57.099C66.0011 57.099 65.4878 56.9707 65.0331 56.714C64.5858 56.4573 64.2338 56.0943 63.9771 55.625C63.7205 55.1483 63.5921 54.5983 63.5921 53.975C63.5921 53.3517 63.7168 52.8053 63.9661 52.336C64.2155 51.8667 64.5638 51.5073 65.0111 51.258C65.4658 51.0013 65.9865 50.873 66.5731 50.873C67.1451 50.873 67.6511 50.9977 68.0911 51.247C68.5311 51.4963 68.8685 51.841 69.1031 52.281C69.3451 52.7137 69.4661 53.205 69.4661 53.755ZM68.4321 53.546C68.4321 53.1647 68.3478 52.8383 68.1791 52.567C68.0105 52.2883 67.7795 52.0793 67.4861 51.94C67.2001 51.7933 66.8811 51.72 66.5291 51.72C66.0231 51.72 65.5905 51.8813 65.2311 52.204C64.8791 52.5267 64.6775 52.974 64.6261 53.546H68.4321Z" fill="#D1D1D1"/>
</svg>
