<svg width="38" height="38" viewBox="0 0 38 38" fill="none" xmlns="http://www.w3.org/2000/svg">
<path d="M33.5376 35.6173L30.3209 36.4179L27.5415 37.1096H12.9438L10.1071 29.9023L0.777588 6.197L10.1071 3.8747L20.0682 1.39551L30.3209 27.4448L33.5376 35.6173Z" fill="#379A6B"/>
<path d="M26.7181 32.7801L27.4147 34.5502L18.5112 36.7662L17.8145 34.9961L15.5887 35.5501L5.37085 9.58888L7.5967 9.03493L6.9001 7.2648L15.8036 5.04883L16.5003 6.81888L18.7262 6.26485L28.944 32.2261L26.7181 32.7801Z" fill="#44C086"/>
<path d="M10.1069 1.25098H30.3208V37.1096H10.1069V1.25098Z" fill="#3BA673"/>
<path d="M24.8784 32.7815V34.6362H15.5489V32.7815H13.2166V5.57839H15.5489V3.72363H24.8784V5.57839H27.2107V32.7815H24.8784Z" fill="#44C086"/>
<path d="M20.2139 22.2714C22.3608 22.2714 24.1012 20.8874 24.1012 19.1801C24.1012 17.4729 22.3608 16.0889 20.2139 16.0889C18.0671 16.0889 16.3267 17.4729 16.3267 19.1801C16.3267 20.8874 18.0671 22.2714 20.2139 22.2714Z" fill="#3BA673"/>
<path d="M36.5404 22.2719V37.11H31.0982C29.0363 37.11 27.0588 36.4586 25.6008 35.2991C24.1428 34.1397 23.3237 32.5671 23.3237 30.9274H23.3392L18.2955 24.9918C17.8337 24.4484 17.6624 23.7813 17.8191 23.1374C17.9759 22.4934 18.4479 21.9254 19.1313 21.5582C19.8147 21.191 20.6535 21.0548 21.4632 21.1794C22.273 21.304 22.9873 21.6794 23.449 22.2228L27.9884 27.2179H30.3208V12.3799L36.1745 21.1081C36.4148 21.4663 36.5404 21.866 36.5404 22.2719Z" fill="#F5CBAA"/>
<path d="M9.3295 29.9969V37.1097C9.3295 37.2736 9.41141 37.4309 9.55721 37.5468C9.70301 37.6628 9.90076 37.7279 10.107 37.7279H36.5404C36.7466 37.7279 36.9444 37.6628 37.0902 37.5468C37.236 37.4309 37.3179 37.2736 37.3179 37.1097V22.2716C37.3174 21.7643 37.1603 21.2648 36.8605 20.8169L31.0982 12.225V1.25106C31.0982 1.08709 31.0163 0.929839 30.8705 0.813894C30.7247 0.69795 30.527 0.632813 30.3208 0.632812H10.107C9.90076 0.632813 9.70301 0.69795 9.55721 0.813894C9.41141 0.929839 9.3295 1.08709 9.3295 1.25106V3.42051L0.545231 5.60703C0.44779 5.63129 0.357311 5.67056 0.278959 5.72263C0.200608 5.77469 0.135919 5.83851 0.0885864 5.91045C0.0412541 5.9824 0.012205 6.06105 0.0030985 6.14192C-0.00600801 6.22279 0.00500614 6.30429 0.035512 6.38178L9.3295 29.9969ZM8.33873 8.85023L7.87411 7.66968L9.3295 7.30738V17.5764L6.34544 9.9943L7.82911 9.6249C8.02586 9.5759 8.19008 9.46676 8.28565 9.32149C8.38122 9.17621 8.40032 9.0067 8.33873 8.85023ZM35.763 22.2716V36.4914H31.0982C29.2686 36.4897 27.5125 35.9189 26.2052 34.901C24.8979 33.8831 24.1433 32.4988 24.1027 31.0442C24.1417 30.8834 24.0988 30.7167 23.9835 30.581L18.9408 24.6454C18.7662 24.4436 18.6437 24.2164 18.5801 23.9768C18.5166 23.7372 18.5134 23.4899 18.5706 23.2493C18.6278 23.0087 18.7444 22.7795 18.9137 22.5749C19.0829 22.3703 19.3014 22.1944 19.5565 22.0573C19.8117 21.9202 20.0985 21.8246 20.4003 21.7761C20.7021 21.7276 21.0131 21.7271 21.3152 21.7747C21.6172 21.8222 21.9045 21.9168 22.1603 22.0531C22.4162 22.1894 22.6356 22.3646 22.8058 22.5687C22.8104 22.574 22.8155 22.5794 22.8199 22.5846L27.3588 27.5798C27.4308 27.659 27.5254 27.7235 27.6349 27.7681C27.7443 27.8126 27.8655 27.8358 27.9884 27.8359H30.3208C30.527 27.8359 30.7247 27.7707 30.8705 27.6548C31.0163 27.5389 31.0982 27.3816 31.0982 27.2176V14.8526L35.4886 21.3988C35.6684 21.6675 35.7626 21.9672 35.763 22.2716ZM15.5491 32.1636H13.9942V6.19708H15.5491C15.7553 6.19708 15.9531 6.13194 16.0989 6.016C16.2447 5.90005 16.3266 5.7428 16.3266 5.57883V4.34232H24.1012V5.57883C24.1012 5.7428 24.1831 5.90005 24.3289 6.016C24.4747 6.13194 24.6724 6.19708 24.8786 6.19708H26.4335V24.451L24.0866 21.868C23.9949 21.7615 23.895 21.6596 23.7874 21.5629C24.3875 20.9934 24.7587 20.2938 24.8529 19.5547C24.9471 18.8155 24.76 18.0709 24.3158 17.4173C23.8715 16.7638 23.1907 16.2313 22.3615 15.889C21.5323 15.5468 20.593 15.4104 19.6652 15.4977C18.7374 15.5849 17.864 15.8917 17.1581 16.3784C16.4521 16.865 15.9463 17.509 15.706 18.227C15.4657 18.9449 15.5022 19.7037 15.8106 20.405C16.119 21.1063 16.6851 21.7178 17.4356 22.1602C17.1072 22.6559 16.9539 23.2132 16.992 23.7727C17.0301 24.3322 17.2581 24.8731 17.6519 25.3378L22.549 31.1014C22.5804 32.1172 22.8997 33.1143 23.483 34.0184H16.3266V32.7819C16.3266 32.6179 16.2447 32.4607 16.0989 32.3447C15.9531 32.2288 15.7553 32.1636 15.5491 32.1636ZM18.6966 21.0456C18.6037 21.0955 18.5147 21.1488 18.4284 21.2041C17.9126 20.9165 17.5189 20.511 17.2993 20.0415C17.0797 19.5719 17.0447 19.0604 17.1987 18.5747C17.3528 18.0889 17.6887 17.6519 18.1621 17.3213C18.6354 16.9907 19.2238 16.7823 19.8495 16.7236C20.4751 16.6648 21.1084 16.7585 21.6655 16.9923C22.2226 17.2262 22.6774 17.589 22.9694 18.0329C23.2615 18.4767 23.3772 18.9806 23.3012 19.4779C23.2252 19.9752 22.961 20.4424 22.5437 20.8177C21.9329 20.5863 21.2568 20.4856 20.5821 20.5255C19.9074 20.5655 19.2575 20.7448 18.6966 21.0456ZM10.8844 1.86932H29.5433V26.5994H28.3858L27.9884 26.162V5.57883C27.9884 5.41486 27.9065 5.2576 27.7607 5.14166C27.6149 5.02571 27.4172 4.96057 27.211 4.96057H25.6561V3.72407C25.6561 3.5601 25.5742 3.40285 25.4284 3.2869C25.2825 3.17096 25.0848 3.10582 24.8786 3.10582H15.5491C15.343 3.10582 15.1452 3.17096 14.9994 3.2869C14.8536 3.40285 14.7717 3.5601 14.7717 3.72407V4.96057H13.2168C13.0106 4.96057 12.8128 5.02571 12.667 5.14166C12.5212 5.2576 12.4393 5.41486 12.4393 5.57883V32.7819C12.4393 32.9459 12.5212 33.1031 12.667 33.2191C12.8128 33.335 13.0106 33.4002 13.2168 33.4002H14.7717V34.6367C14.7717 34.8006 14.8536 34.9579 14.9994 35.0738C15.1452 35.1898 15.343 35.2549 15.5491 35.2549H24.5082C24.9972 35.7247 25.5627 36.1405 26.19 36.4914H10.8844V1.86932ZM9.3295 4.71613V6.0116L6.66769 6.67421C6.47092 6.72319 6.30668 6.83233 6.21109 6.9776C6.1155 7.12288 6.09639 7.2924 6.15797 7.44888L6.6226 8.62951L5.13892 8.99884C5.04149 9.0231 4.95102 9.06238 4.87268 9.11445C4.79434 9.16651 4.72966 9.23034 4.68234 9.30228C4.63502 9.37422 4.60597 9.45287 4.59687 9.53374C4.58777 9.6146 4.59879 9.69611 4.6293 9.77359L9.3295 21.7161V25.857L1.75165 6.60242L9.3295 4.71613Z" fill="black"/>
</svg>
