<svg width="38" height="38" viewBox="0 0 38 38" fill="none" xmlns="http://www.w3.org/2000/svg">
<path d="M0.691162 5.35352H29.7165V30.9827H0.691162V5.35352Z" fill="#EA9D2D"/>
<path d="M18.6591 12.098L15.2037 10.7491L11.7483 12.098V5.35352H18.6591V12.098Z" fill="#007AF6"/>
<path d="M19.3502 14.7959H11.0572C10.2939 14.7959 9.67505 15.3998 9.67505 16.1448C9.67505 16.8898 10.2939 17.4937 11.0572 17.4937H19.3502C20.1135 17.4937 20.7323 16.8898 20.7323 16.1448C20.7323 15.3998 20.1135 14.7959 19.3502 14.7959Z" fill="#C38325"/>
<path d="M3.45532 20.1924H13.1304V28.2858H3.45532V20.1924Z" fill="#EAEAE8"/>
<path d="M7.60172 23.5637H5.52848C5.3452 23.5637 5.16942 23.4927 5.03981 23.3662C4.91021 23.2397 4.8374 23.0682 4.8374 22.8893C4.8374 22.7104 4.91021 22.5389 5.03981 22.4124C5.16942 22.2859 5.3452 22.2148 5.52848 22.2148H7.60172C7.785 22.2148 7.96078 22.2859 8.09038 22.4124C8.21999 22.5389 8.2928 22.7104 8.2928 22.8893C8.2928 23.0682 8.21999 23.2397 8.09038 23.3662C7.96078 23.4927 7.785 23.5637 7.60172 23.5637Z" fill="#CBCBCB"/>
<path d="M9.67495 26.262H5.52848C5.3452 26.262 5.16942 26.1909 5.03981 26.0644C4.91021 25.938 4.8374 25.7664 4.8374 25.5875C4.8374 25.4087 4.91021 25.2371 5.03981 25.1106C5.16942 24.9841 5.3452 24.9131 5.52848 24.9131H9.67495C9.85824 24.9131 10.034 24.9841 10.1636 25.1106C10.2932 25.2371 10.366 25.4087 10.366 25.5875C10.366 25.7664 10.2932 25.938 10.1636 26.0644C10.034 26.1909 9.85824 26.262 9.67495 26.262Z" fill="#CBCBCB"/>
<path d="M0.691162 1.30762H29.7165V5.35432H0.691162V1.30762Z" fill="#FBB540"/>
<path d="M11.7483 1.30762H18.6591V5.35432H11.7483V1.30762Z" fill="#41B2FF"/>
<path d="M29.7162 37.0535C33.5329 37.0535 36.627 34.0339 36.627 30.309C36.627 26.5841 33.5329 23.5645 29.7162 23.5645C25.8995 23.5645 22.8054 26.5841 22.8054 30.309C22.8054 34.0339 25.8995 37.0535 29.7162 37.0535Z" fill="#02A437"/>
<path d="M31.0986 27.6104H27.6432C27.4599 27.6104 27.2841 27.6814 27.1545 27.8079C27.0249 27.9344 26.9521 28.1059 26.9521 28.2848C26.9521 28.4637 27.0249 28.6352 27.1545 28.7617C27.2841 28.8882 27.4599 28.9593 27.6432 28.9593H31.0986C31.4651 28.9593 31.8167 29.1014 32.0759 29.3543C32.3351 29.6073 32.4807 29.9504 32.4807 30.3082C32.4807 30.6659 32.3351 31.009 32.0759 31.262C31.8167 31.5149 31.4651 31.6571 31.0986 31.6571H28.6205L28.8229 31.4595C28.9525 31.333 29.0253 31.1615 29.0253 30.9826C29.0253 30.8037 28.9525 30.6322 28.8229 30.5057C28.6933 30.3792 28.5175 30.3081 28.3342 30.3081C28.151 30.3081 27.9752 30.3792 27.8456 30.5057L26.4634 31.8546C26.3992 31.9172 26.3483 31.9916 26.3136 32.0734C26.2789 32.1552 26.261 32.2429 26.261 32.3315C26.261 32.4201 26.2789 32.5078 26.3136 32.5896C26.3483 32.6715 26.3992 32.7458 26.4634 32.8084L27.8456 34.1573C27.9752 34.2838 28.151 34.3549 28.3342 34.3549C28.5175 34.3549 28.6933 34.2838 28.8229 34.1573C28.9525 34.0308 29.0253 33.8593 29.0253 33.6804C29.0253 33.5015 28.9525 33.33 28.8229 33.2035L28.6205 33.006H31.0986C31.8317 33.006 32.5348 32.7217 33.0532 32.2158C33.5716 31.7099 33.8629 31.0237 33.8629 30.3082C33.8629 29.5927 33.5716 28.9065 33.0532 28.4005C32.5348 27.8946 31.8317 27.6104 31.0986 27.6104Z" fill="#027226"/>
<path d="M19.3503 14.1221H11.0574C10.5075 14.1221 9.98017 14.3352 9.59137 14.7147C9.20256 15.0941 8.98413 15.6088 8.98413 16.1454C8.98413 16.6821 9.20256 17.1967 9.59137 17.5762C9.98017 17.9556 10.5075 18.1688 11.0574 18.1688H19.3503C19.9002 18.1688 20.4275 17.9556 20.8163 17.5762C21.2051 17.1967 21.4235 16.6821 21.4235 16.1454C21.4235 15.6088 21.2051 15.0941 20.8163 14.7147C20.4275 14.3352 19.9002 14.1221 19.3503 14.1221ZM19.3503 16.8199H11.0574C10.8741 16.8199 10.6983 16.7488 10.5687 16.6223C10.4391 16.4958 10.3663 16.3243 10.3663 16.1454C10.3663 15.9665 10.4391 15.795 10.5687 15.6685C10.6983 15.542 10.8741 15.471 11.0574 15.471H19.3503C19.5336 15.471 19.7094 15.542 19.839 15.6685C19.9686 15.795 20.0414 15.9665 20.0414 16.1454C20.0414 16.3243 19.9686 16.4958 19.839 16.6223C19.7094 16.7488 19.5336 16.8199 19.3503 16.8199Z" fill="black"/>
<path d="M13.1306 19.5176H3.45548C3.2722 19.5176 3.09642 19.5886 2.96682 19.7151C2.83721 19.8416 2.7644 20.0132 2.7644 20.192V28.2854C2.7644 28.4643 2.83721 28.6359 2.96682 28.7624C3.09642 28.8888 3.2722 28.9599 3.45548 28.9599H13.1306C13.3139 28.9599 13.4897 28.8888 13.6193 28.7624C13.7489 28.6359 13.8217 28.4643 13.8217 28.2854V20.192C13.8217 20.0132 13.7489 19.8416 13.6193 19.7151C13.4897 19.5886 13.3139 19.5176 13.1306 19.5176ZM12.4395 27.611H4.14656V20.8665H12.4395V27.611Z" fill="black"/>
<path d="M5.52848 23.5637H7.60172C7.785 23.5637 7.96078 23.4927 8.09038 23.3662C8.21999 23.2397 8.2928 23.0682 8.2928 22.8893C8.2928 22.7104 8.21999 22.5389 8.09038 22.4124C7.96078 22.2859 7.785 22.2148 7.60172 22.2148H5.52848C5.3452 22.2148 5.16942 22.2859 5.03981 22.4124C4.91021 22.5389 4.8374 22.7104 4.8374 22.8893C4.8374 23.0682 4.91021 23.2397 5.03981 23.3662C5.16942 23.4927 5.3452 23.5637 5.52848 23.5637Z" fill="black"/>
<path d="M5.52848 26.262H9.67495C9.85824 26.262 10.034 26.1909 10.1636 26.0644C10.2932 25.938 10.366 25.7664 10.366 25.5875C10.366 25.4087 10.2932 25.2371 10.1636 25.1106C10.034 24.9841 9.85824 24.9131 9.67495 24.9131H5.52848C5.3452 24.9131 5.16942 24.9841 5.03981 25.1106C4.91021 25.2371 4.8374 25.4087 4.8374 25.5875C4.8374 25.7664 4.91021 25.938 5.03981 26.0644C5.16942 26.1909 5.3452 26.262 5.52848 26.262Z" fill="black"/>
<path d="M30.4075 22.9207V1.30726C30.4075 1.12839 30.3347 0.956839 30.205 0.830355C30.0754 0.703871 29.8997 0.632812 29.7164 0.632812H0.691079C0.507793 0.632812 0.332015 0.703871 0.202412 0.830355C0.07281 0.956839 0 1.12839 0 1.30726V30.9831C0 31.162 0.07281 31.3335 0.202412 31.46C0.332015 31.5865 0.507793 31.6576 0.691079 31.6576H22.2408C22.498 33.0155 23.1385 34.2764 24.0901 35.2984C25.0416 36.3203 26.2666 37.0628 27.6271 37.4423C28.9876 37.8218 30.4296 37.8231 31.7908 37.4462C33.1521 37.0693 34.3785 36.3291 35.3321 35.3089C36.2857 34.2888 36.9287 33.0291 37.1886 31.6716C37.4484 30.3142 37.315 28.913 36.8032 27.6255C36.2914 26.3381 35.4216 25.2156 34.2917 24.3845C33.1618 23.5533 31.8166 23.0463 30.4075 22.9207ZM19.3502 1.98172H29.0253V4.67952H19.3502V1.98172ZM12.4394 1.98172H17.968V4.67952H12.4394V1.98172ZM12.4394 6.02842H17.968V11.1023L15.4604 10.1234C15.2956 10.059 15.1118 10.059 14.9471 10.1234L12.4394 11.1023V6.02842ZM1.38216 1.98172H11.0573V4.67952H1.38216V1.98172ZM22.1145 30.3087H1.38216V6.02842H11.0573V12.0985C11.0573 12.2087 11.0849 12.3172 11.1379 12.4146C11.1908 12.512 11.2674 12.5952 11.3609 12.657C11.4544 12.7188 11.562 12.7573 11.6743 12.7691C11.7866 12.7809 11.9001 12.7656 12.005 12.7247L15.2037 11.476L18.4025 12.7247C18.5073 12.7656 18.6209 12.7809 18.7332 12.7691C18.8454 12.7573 18.9531 12.7188 19.0466 12.657C19.1401 12.5952 19.2167 12.512 19.2696 12.4146C19.3225 12.3172 19.3502 12.2087 19.3502 12.0985V6.02842H29.0253V22.9207C27.1376 23.0911 25.3829 23.9429 24.1048 25.3093C22.8266 26.6758 22.1169 28.4585 22.1145 30.3087ZM29.7164 36.3787C28.4862 36.3787 27.2837 36.0227 26.2609 35.3557C25.2381 34.6888 24.4409 33.7407 23.9701 32.6316C23.4994 31.5224 23.3762 30.3019 23.6162 29.1245C23.8562 27.947 24.4485 26.8654 25.3184 26.0165C26.1882 25.1676 27.2965 24.5895 28.503 24.3552C29.7095 24.121 30.9601 24.2412 32.0966 24.7007C33.2331 25.1601 34.2044 25.9381 34.8879 26.9363C35.5713 27.9345 35.9361 29.1081 35.9361 30.3087C35.9342 31.918 35.2784 33.4609 34.1123 34.5989C32.9463 35.7368 31.3654 36.3769 29.7164 36.3787Z" fill="black"/>
<path d="M31.0986 27.6104H27.6432C27.4599 27.6104 27.2841 27.6814 27.1545 27.8079C27.0249 27.9344 26.9521 28.1059 26.9521 28.2848C26.9521 28.4637 27.0249 28.6352 27.1545 28.7617C27.2841 28.8882 27.4599 28.9593 27.6432 28.9593H31.0986C31.4651 28.9593 31.8167 29.1014 32.0759 29.3543C32.3351 29.6073 32.4807 29.9504 32.4807 30.3082C32.4807 30.6659 32.3351 31.009 32.0759 31.262C31.8167 31.5149 31.4651 31.6571 31.0986 31.6571H28.6205L28.8229 31.4595C28.9525 31.333 29.0253 31.1615 29.0253 30.9826C29.0253 30.8037 28.9525 30.6322 28.8229 30.5057C28.6933 30.3792 28.5175 30.3081 28.3342 30.3081C28.151 30.3081 27.9752 30.3792 27.8456 30.5057L26.4634 31.8546C26.3992 31.9172 26.3483 31.9916 26.3136 32.0734C26.2789 32.1552 26.261 32.2429 26.261 32.3315C26.261 32.4201 26.2789 32.5078 26.3136 32.5896C26.3483 32.6715 26.3992 32.7458 26.4634 32.8084L27.8456 34.1573C27.9752 34.2838 28.151 34.3549 28.3342 34.3549C28.5175 34.3549 28.6933 34.2838 28.8229 34.1573C28.9525 34.0308 29.0253 33.8593 29.0253 33.6804C29.0253 33.5015 28.9525 33.33 28.8229 33.2035L28.6205 33.006H31.0986C31.8317 33.006 32.5348 32.7217 33.0532 32.2158C33.5716 31.7099 33.8629 31.0237 33.8629 30.3082C33.8629 29.5927 33.5716 28.9065 33.0532 28.4005C32.5348 27.8946 31.8317 27.6104 31.0986 27.6104Z" fill="black"/>
</svg>
