<svg width="56" height="26" viewBox="0 0 56 26" fill="none" xmlns="http://www.w3.org/2000/svg">
<path d="M13.8883 6.04356L12.9992 6.93461L12.1073 6.04276C9.83335 3.76876 6.14647 3.76876 3.87249 6.04276C1.59849 8.31674 1.59849 12.0036 3.87249 14.2776L12.4258 22.8309C12.7431 23.1482 13.2576 23.1482 13.5749 22.8309L22.1347 14.276C24.4037 11.9945 24.4076 8.31796 22.1332 6.04356C19.8551 3.76543 16.1664 3.76543 13.8883 6.04356ZM20.9825 13.1302L13.0003 21.1074L5.02154 13.1285C3.38214 11.4891 3.38214 8.83119 5.02154 7.19181C6.66092 5.55241 9.31889 5.55241 10.9583 7.19181L12.4288 8.66237C12.7515 8.98506 13.2766 8.97876 13.5915 8.64845L15.0374 7.19261C16.6809 5.54908 19.3406 5.54908 20.9841 7.19261C22.624 8.8324 22.6211 11.4825 20.9825 13.1302Z" fill="#868686"/>
<path d="M44.5303 4.21967C44.2374 3.92678 43.7626 3.92678 43.4697 4.21967L38.2197 9.46967C37.9268 9.76256 37.9268 10.2374 38.2197 10.5303C38.5126 10.8232 38.9874 10.8232 39.2803 10.5303L43.25 6.56066V17.25C43.25 17.6642 43.5858 18 44 18C44.4142 18 44.75 17.6642 44.75 17.25V6.56066L48.7197 10.5303C49.0126 10.8232 49.4874 10.8232 49.7803 10.5303C50.0732 10.2374 50.0732 9.76256 49.7803 9.46967L44.5303 4.21967ZM35.75 13C36.1642 13 36.5 13.3358 36.5 13.75V19.75C36.5 20.7165 37.2835 21.5 38.25 21.5H49.75C50.7165 21.5 51.5 20.7165 51.5 19.75V13.75C51.5 13.3358 51.8358 13 52.25 13C52.6642 13 53 13.3358 53 13.75V19.75C53 21.5449 51.5449 23 49.75 23H38.25C36.4551 23 35 21.5449 35 19.75V13.75C35 13.3358 35.3358 13 35.75 13Z" fill="#868686"/>
</svg>
