<svg width="26" height="26" viewBox="0 0 26 26" fill="none" xmlns="http://www.w3.org/2000/svg">
<path d="M13.8883 6.04356L12.9992 6.93461L12.1073 6.04276C9.83335 3.76876 6.14647 3.76876 3.87249 6.04276C1.59849 8.31674 1.59849 12.0036 3.87249 14.2776L12.4258 22.8309C12.7431 23.1482 13.2576 23.1482 13.5749 22.8309L22.1347 14.276C24.4037 11.9945 24.4076 8.31796 22.1332 6.04356C19.8551 3.76543 16.1664 3.76543 13.8883 6.04356ZM20.9825 13.1302L13.0003 21.1074L5.02154 13.1285C3.38214 11.4891 3.38214 8.83119 5.02154 7.19181C6.66092 5.55241 9.31889 5.55241 10.9583 7.19181L12.4288 8.66237C12.7515 8.98506 13.2766 8.97876 13.5915 8.64845L15.0374 7.19261C16.6809 5.54908 19.3406 5.54908 20.9841 7.19261C22.624 8.8324 22.6211 11.4825 20.9825 13.1302Z" fill="#868686"/>
</svg>
