<svg width="20" height="20" viewBox="0 0 20 20" fill="none" xmlns="http://www.w3.org/2000/svg">
<path d="M8.33317 4.16667H11.6665C11.6665 3.24619 10.9203 2.5 9.99984 2.5C9.07934 2.5 8.33317 3.24619 8.33317 4.16667ZM7.08317 4.16667C7.08317 2.55583 8.389 1.25 9.99984 1.25C11.6107 1.25 12.9165 2.55583 12.9165 4.16667H17.7082C18.0533 4.16667 18.3332 4.44649 18.3332 4.79167C18.3332 5.13684 18.0533 5.41667 17.7082 5.41667H16.6089L15.6323 15.5093C15.4773 17.1112 14.1311 18.3333 12.5218 18.3333H7.47791C5.86862 18.3333 4.52246 17.1112 4.36745 15.5093L3.39074 5.41667H2.2915C1.94633 5.41667 1.6665 5.13684 1.6665 4.79167C1.6665 4.44649 1.94633 4.16667 2.2915 4.16667H7.08317ZM8.74984 8.125C8.74984 7.77983 8.47 7.5 8.12484 7.5C7.77966 7.5 7.49984 7.77983 7.49984 8.125V14.375C7.49984 14.7202 7.77966 15 8.12484 15C8.47 15 8.74984 14.7202 8.74984 14.375V8.125ZM11.8748 7.5C12.22 7.5 12.4998 7.77983 12.4998 8.125V14.375C12.4998 14.7202 12.22 15 11.8748 15C11.5297 15 11.2498 14.7202 11.2498 14.375V8.125C11.2498 7.77983 11.5297 7.5 11.8748 7.5ZM5.61164 15.3889C5.70465 16.35 6.51234 17.0833 7.47791 17.0833H12.5218C13.4873 17.0833 14.295 16.35 14.388 15.3889L15.3531 5.41667H4.64657L5.61164 15.3889Z" fill="white"/>
</svg>
