<svg width="20" height="20" viewBox="0 0 20 20" fill="none" xmlns="http://www.w3.org/2000/svg">
<path d="M14.1667 2.08154C15.7783 2.08154 17.0848 3.38803 17.0848 4.99968C17.0848 6.61133 15.7783 7.91782 14.1667 7.91782C13.3083 7.91782 12.5366 7.54727 12.0027 6.95741L8.20379 9.12775C8.28988 9.40308 8.33625 9.696 8.33625 9.99967C8.33625 10.3034 8.28988 10.5963 8.20379 10.8716L12.0019 13.0428C12.5358 12.4524 13.3079 12.0815 14.1667 12.0815C15.7783 12.0815 17.0848 13.388 17.0848 14.9997C17.0848 16.6113 15.7783 17.9178 14.1667 17.9178C12.555 17.9178 11.2485 16.6113 11.2485 14.9997C11.2485 14.696 11.2949 14.4031 11.381 14.1278L7.58293 11.9566C7.04894 12.5469 6.27686 12.9178 5.41814 12.9178C3.8065 12.9178 2.5 11.6113 2.5 9.99967C2.5 8.388 3.8065 7.08154 5.41814 7.08154C6.27644 7.08154 7.0482 7.45209 7.58216 8.04195L11.381 5.8716C11.2949 5.59626 11.2485 5.30339 11.2485 4.99968C11.2485 3.38803 12.555 2.08154 14.1667 2.08154ZM14.1667 13.3315C13.2454 13.3315 12.4985 14.0784 12.4985 14.9997C12.4985 15.921 13.2454 16.6678 14.1667 16.6678C15.0879 16.6678 15.8348 15.921 15.8348 14.9997C15.8348 14.0784 15.0879 13.3315 14.1667 13.3315ZM5.41814 8.33154C4.49685 8.33154 3.75 9.07842 3.75 9.99967C3.75 10.921 4.49685 11.6678 5.41814 11.6678C6.33943 11.6678 7.08628 10.921 7.08628 9.99967C7.08628 9.07842 6.33943 8.33154 5.41814 8.33154ZM14.1667 3.33154C13.2454 3.33154 12.4985 4.07839 12.4985 4.99968C12.4985 5.92097 13.2454 6.66782 14.1667 6.66782C15.0879 6.66782 15.8348 5.92097 15.8348 4.99968C15.8348 4.07839 15.0879 3.33154 14.1667 3.33154Z" fill="white"/>
</svg>
