<svg width="38" height="38" viewBox="0 0 38 38" fill="none" xmlns="http://www.w3.org/2000/svg">
<path d="M32.4928 16.324C32.2887 16.3095 32.0992 16.4254 31.9971 16.6138L31.1516 18.1934C31.0059 18.4542 30.6852 18.5557 30.4228 18.4108C30.4082 18.4108 30.3936 18.3963 30.3936 18.3963L28.863 17.4398C28.6881 17.3239 28.4694 17.3239 28.2945 17.4398L26.7639 18.3963C26.5161 18.5557 26.1808 18.4832 26.0204 18.2224C26.0204 18.2079 26.0059 18.1934 26.0059 18.1934L25.1604 16.6138C25.0583 16.4254 24.8688 16.324 24.6647 16.324L22.8717 16.3964C22.5802 16.4109 22.3324 16.179 22.3178 15.8747C22.3178 15.8602 22.3178 15.8457 22.3178 15.8312L22.3907 14.0488C22.4053 13.8459 22.2886 13.6575 22.0991 13.556L20.5102 12.7155C20.2478 12.5706 20.1458 12.2518 20.2916 11.9909C20.2916 11.9765 20.3061 11.962 20.3061 11.962L20.8746 11.0635H8.27985C7.25944 11.0635 6.44312 11.8895 6.44312 12.8894V35.5399C6.44312 36.5544 7.27402 37.3659 8.27985 37.3659H31.0496C32.07 37.3659 32.8863 36.5399 32.8863 35.5399V16.3385L32.4928 16.324Z" fill="#965D41"/>
<path d="M24.5918 28.0908H29.4898C30.0438 28.0908 30.4811 28.5256 30.4811 29.0763V33.96C30.4811 34.5106 30.0438 34.9454 29.4898 34.9454H24.5918C24.0379 34.9454 23.6006 34.5106 23.6006 33.96V29.0907C23.6006 28.5256 24.0379 28.0908 24.5918 28.0908Z" fill="#E9E9EA"/>
<path d="M22.8717 16.3964C22.5802 16.4109 22.3324 16.179 22.3178 15.8747C22.3178 15.8602 22.3178 15.8457 22.3178 15.8312L22.3907 14.0488C22.4052 13.8459 22.2886 13.6575 22.0991 13.556L20.5102 12.7155C20.2478 12.5706 20.1458 12.2518 20.2915 11.9909C20.2915 11.9765 20.3061 11.962 20.3061 11.962L20.8746 11.0635H15.8455V21.541H23.4985V16.3674L22.8717 16.3964Z" fill="#FFCD29"/>
<path d="M19.6649 11.0635H15.8311V21.541H19.6649V11.0635Z" fill="#FCD770"/>
<path d="M35.9039 10.4548C35.7873 10.2809 35.7873 10.0635 35.9039 9.8896L36.866 8.36797C37.0264 8.12161 36.9535 7.7883 36.6911 7.62889C36.6765 7.62889 36.662 7.6144 36.662 7.6144L35.073 6.77389C34.8835 6.67244 34.7815 6.48405 34.7815 6.28117L34.8544 4.49869C34.869 4.20886 34.6357 3.9625 34.3296 3.94801C34.315 3.94801 34.3004 3.94801 34.2859 3.94801L32.4929 4.02046C32.2888 4.03496 32.0993 3.91902 31.9972 3.73063L31.1517 2.15104C31.006 1.89019 30.6853 1.78874 30.4229 1.93366C30.4083 1.93366 30.3937 1.94815 30.3937 1.94815L28.8631 2.89011C28.6882 3.00605 28.4695 3.00605 28.2946 2.89011L26.764 1.93366C26.5162 1.77425 26.1809 1.84671 26.0205 2.10756C26.0205 2.12205 26.006 2.13655 26.006 2.13655L25.1605 3.71614C25.0584 3.90453 24.8689 4.00597 24.6648 4.00597L22.8718 3.93351C22.5803 3.91902 22.3325 4.15089 22.3179 4.45522C22.3179 4.46971 22.3179 4.4842 22.3179 4.49869L22.3908 6.28117C22.4054 6.48405 22.2887 6.67244 22.0992 6.77389L20.5103 7.6144C20.2479 7.75932 20.1459 8.07814 20.2917 8.33899C20.2917 8.35348 20.3062 8.36797 20.3062 8.36797L21.2683 9.8896C21.3849 10.0635 21.3849 10.2809 21.2683 10.4548L20.3062 11.9764C20.1459 12.2228 20.2188 12.5561 20.4812 12.7155C20.4957 12.7155 20.5103 12.73 20.5103 12.73L22.0992 13.5705C22.2887 13.6719 22.3908 13.8603 22.3908 14.0632L22.3179 15.8457C22.3033 16.1355 22.5366 16.3819 22.8427 16.3964C22.8573 16.3964 22.8718 16.3964 22.8864 16.3964L24.6794 16.3239C24.8835 16.3094 25.073 16.4253 25.175 16.6137L26.0205 18.1933C26.1663 18.4542 26.487 18.5556 26.7494 18.4107C26.764 18.4107 26.7786 18.3962 26.7786 18.3962L28.3092 17.4398C28.4841 17.3238 28.7028 17.3238 28.8777 17.4398L30.4083 18.3962C30.6561 18.5556 30.9914 18.4832 31.1517 18.2223C31.1517 18.2078 31.1663 18.1933 31.1663 18.1933L32.0118 16.6137C32.1138 16.4253 32.3033 16.3239 32.5074 16.3239L34.3004 16.3964C34.592 16.4109 34.8398 16.179 34.8544 15.8747C34.8544 15.8602 34.8544 15.8457 34.8544 15.8312L34.7815 14.0487C34.7669 13.8458 34.8835 13.6574 35.073 13.556L36.662 12.7155C36.9244 12.5706 37.0264 12.2517 36.8806 11.9909C36.8806 11.9764 36.866 11.9619 36.866 11.9619L35.9039 10.4548Z" fill="#F45D64"/>
<path d="M36.9535 18.7149H36.6911V18.4541C36.6911 18.2512 36.5308 18.0918 36.3267 18.0918C36.1226 18.0918 35.9623 18.2512 35.9623 18.4541V18.7149H35.6999C35.4958 18.7149 35.3354 18.8743 35.3354 19.0772C35.3354 19.2801 35.4958 19.4395 35.6999 19.4395H35.9623V19.7004C35.9623 19.9033 36.1226 20.0627 36.3267 20.0627C36.5308 20.0627 36.6911 19.9033 36.6911 19.7004V19.4395H36.9535C37.1576 19.4395 37.318 19.2801 37.318 19.0772C37.318 18.8743 37.1576 18.7149 36.9535 18.7149Z" fill="#FFCD29"/>
<path d="M23.178 0.919023C23.178 0.89004 23.1634 0.875548 23.1634 0.846565C23.1488 0.832073 23.1488 0.80309 23.1343 0.788598C23.1197 0.774106 23.1051 0.745123 23.0905 0.730631C22.9447 0.600206 22.7261 0.600206 22.5803 0.730631C22.5657 0.745123 22.5512 0.759615 22.5366 0.788598C22.522 0.80309 22.5074 0.832073 22.5074 0.846565C22.4928 0.875548 22.4928 0.89004 22.4928 0.919023C22.4928 0.948007 22.4783 0.962498 22.4783 0.991482C22.4783 1.02047 22.4783 1.03496 22.4928 1.06394C22.4928 1.09292 22.5074 1.10742 22.5074 1.1364C22.522 1.16538 22.522 1.17987 22.5366 1.19437C22.5512 1.20886 22.5657 1.23784 22.5803 1.25233C22.7261 1.39725 22.9447 1.39725 23.0905 1.25233C23.1051 1.23784 23.1197 1.22335 23.1343 1.19437C23.1488 1.17987 23.1634 1.15089 23.1634 1.1364C23.178 1.12191 23.178 1.09292 23.178 1.06394C23.178 1.03496 23.178 1.02047 23.1926 0.991482C23.1926 0.962498 23.178 0.933515 23.178 0.919023Z" fill="#60BAE2"/>
<path d="M35.3061 21.7149C35.3061 21.6859 35.2915 21.6714 35.2915 21.6425C35.2769 21.628 35.2769 21.599 35.2624 21.5845C35.2478 21.57 35.2332 21.541 35.2186 21.5265C35.0729 21.3961 34.8542 21.3961 34.7084 21.5265C34.6939 21.541 34.6793 21.5555 34.6647 21.5845C34.6355 21.628 34.621 21.6714 34.6064 21.7149C34.5918 21.7584 34.5918 21.8164 34.6064 21.8598C34.6064 21.8888 34.621 21.9033 34.621 21.9323C34.6355 21.9613 34.6355 21.9758 34.6501 21.9903C34.6647 22.0048 34.6793 22.0337 34.6939 22.0482C34.8396 22.1931 35.0583 22.1931 35.2041 22.0482C35.2186 22.0337 35.2332 22.0192 35.2478 21.9903C35.2624 21.9758 35.2769 21.9468 35.2769 21.9323C35.2915 21.9178 35.2915 21.8888 35.2915 21.8598C35.3207 21.8164 35.3207 21.7729 35.3061 21.7149Z" fill="#6DCC6D"/>
<path d="M20.8603 3.035C20.2626 2.91906 19.8107 2.45533 19.6941 1.87566C19.6941 1.86117 19.6795 1.84668 19.6649 1.84668C19.6503 1.84668 19.6503 1.86117 19.6358 1.87566C19.5191 2.46982 19.0527 2.91906 18.4696 3.035C18.455 3.035 18.4404 3.04949 18.4404 3.06398C18.4404 3.07847 18.455 3.07847 18.4696 3.09297C19.0673 3.2089 19.5191 3.67263 19.6358 4.2523C19.6358 4.26679 19.6503 4.28128 19.6649 4.28128C19.6795 4.28128 19.6795 4.26679 19.6941 4.2523C19.8107 3.65814 20.2772 3.2089 20.8603 3.09297C20.8748 3.09297 20.8894 3.07847 20.8894 3.06398C20.8748 3.04949 20.8748 3.035 20.8603 3.035Z" fill="#F45D64"/>
<path d="M26.1954 15.1938C26.0933 15.1938 26.0059 15.1503 25.933 15.0923L23.6152 12.7881C23.4694 12.6432 23.4694 12.4114 23.6152 12.2809L24.6648 11.2375C24.8105 11.0926 25.0292 11.0926 25.175 11.223C25.3207 11.3679 25.3207 11.5853 25.1895 11.7302C25.1895 11.7302 25.1895 11.7302 25.175 11.7447L24.3732 12.5418L26.4286 14.5851C26.5744 14.73 26.5744 14.9619 26.4286 15.0923C26.3849 15.1503 26.2974 15.1938 26.1954 15.1938Z" fill="#231F20"/>
<path d="M25.0439 14.0339C24.8398 14.0339 24.6794 13.8745 24.6794 13.6716C24.6794 13.5701 24.7232 13.4832 24.7815 13.4107L25.831 12.3673C25.9768 12.2224 26.2101 12.2369 26.3413 12.3818C26.4725 12.5267 26.4725 12.7441 26.3413 12.889L25.2917 13.9324C25.2334 14.0049 25.1459 14.0339 25.0439 14.0339Z" fill="#231F20"/>
<path d="M28.1635 13.2512C28.0614 13.2512 27.974 13.2078 27.9011 13.1498L26.7495 12.005L25.5979 10.8601C25.4521 10.7152 25.4521 10.4833 25.5979 10.3529L26.2684 9.68629C26.7057 9.20807 27.4637 9.17908 27.9448 9.61383C28.4259 10.0486 28.455 10.8022 28.0177 11.2804C27.9885 11.3094 27.974 11.3239 27.9448 11.3528L27.5366 11.7586L28.4404 12.6571C28.5862 12.802 28.5862 13.0339 28.4404 13.1643C28.353 13.2078 28.2509 13.2512 28.1635 13.2512ZM26.3559 10.5848L26.9973 11.2224L27.4054 10.8166C27.5804 10.6427 27.5804 10.3529 27.4054 10.179C27.2305 10.0051 26.939 10.0051 26.764 10.179L26.3559 10.5848Z" fill="#231F20"/>
<path d="M30.3062 11.1068C30.2042 11.1068 30.1167 11.0634 30.0438 11.0054L27.726 8.70122C27.5803 8.5563 27.5803 8.32444 27.726 8.19401L28.7756 7.15061C28.9214 7.00569 29.14 7.00569 29.2858 7.13612C29.4316 7.26654 29.4316 7.49841 29.3004 7.64333C29.3004 7.64333 29.3004 7.64333 29.2858 7.65782L28.484 8.45486L30.2771 10.2373L31.0788 9.4403C31.2246 9.29538 31.4578 9.30987 31.589 9.45479C31.7202 9.59971 31.7202 9.81708 31.589 9.962L30.5394 11.0054C30.4957 11.0634 30.4083 11.1068 30.3062 11.1068Z" fill="#231F20"/>
<path d="M29.1545 9.96168C28.9504 9.96168 28.79 9.80228 28.79 9.59939C28.79 9.49795 28.8338 9.411 28.8921 9.33854L29.9416 8.29514C30.0874 8.15022 30.3061 8.15022 30.4519 8.28065C30.5976 8.41107 30.5976 8.64294 30.4664 8.78786C30.4664 8.78786 30.4664 8.78786 30.4519 8.80235L29.4023 9.84575C29.344 9.91821 29.2565 9.96168 29.1545 9.96168Z" fill="#231F20"/>
<path d="M32.2159 9.20833C32.1138 9.20833 32.0264 9.16486 31.9535 9.10689L29.6357 6.80271C29.4899 6.6578 29.4899 6.42593 29.6357 6.29551L30.6853 5.2521C30.831 5.10719 31.0643 5.12168 31.1955 5.2666C31.3267 5.41151 31.3267 5.62889 31.1955 5.7738L30.3937 6.57085L32.2159 8.33883L33.0176 7.54179C33.1634 7.39687 33.3821 7.39687 33.5278 7.5273C33.6736 7.65772 33.6736 7.88959 33.5424 8.03451C33.5424 8.03451 33.5424 8.03451 33.5278 8.049L32.4783 9.0924C32.4054 9.17935 32.3179 9.20833 32.2159 9.20833Z" fill="#231F20"/>
<path d="M31.0644 8.06318C30.8603 8.06318 30.7 7.90377 30.7 7.70089C30.7 7.59944 30.7437 7.51249 30.802 7.44004L31.8516 6.39663C31.9973 6.25172 32.2306 6.26621 32.3618 6.41113C32.493 6.55604 32.493 6.77342 32.3618 6.91834L31.3122 7.96174C31.2539 8.0197 31.1518 8.06318 31.0644 8.06318Z" fill="#231F20"/>
<path d="M29.2711 12.1504C29.2127 12.1504 29.169 12.1359 29.1253 12.1214L27.5364 11.4113C27.3469 11.3243 27.274 11.107 27.3614 10.9331C27.4489 10.7447 27.6676 10.6722 27.8425 10.7592L29.4314 11.4693C29.6209 11.5562 29.6938 11.7591 29.6063 11.9475C29.5334 12.0634 29.4023 12.1504 29.2711 12.1504Z" fill="#231F20"/>
<path d="M30.6705 18.8453C30.4956 18.8453 30.3353 18.8018 30.1895 18.7149L28.6589 17.7584C28.6006 17.7294 28.5277 17.7294 28.4694 17.7584L26.9387 18.7149C26.516 18.9757 25.9621 18.8598 25.6997 18.4395C25.6851 18.425 25.6705 18.396 25.6705 18.3815L24.825 16.802C24.7959 16.744 24.7376 16.715 24.6647 16.715L22.8717 16.7875C22.376 16.802 21.9533 16.4252 21.9387 15.918C21.9387 15.889 21.9387 15.8745 21.9387 15.8455L22.0116 14.063C22.0116 13.9906 21.9825 13.9326 21.9242 13.9036L20.3352 13.0631C19.8979 12.8312 19.723 12.295 19.9562 11.8458C19.9708 11.8313 19.9854 11.8023 19.9854 11.7878L20.9475 10.2807C20.9766 10.2227 20.9766 10.1503 20.9475 10.0923L19.9854 8.57067C19.723 8.15041 19.8396 7.59973 20.2623 7.33888C20.2769 7.32439 20.3061 7.3099 20.3207 7.3099L21.9096 6.46938C21.9679 6.4404 21.997 6.38243 21.997 6.30997L21.9242 4.52749C21.9096 4.03478 22.2886 3.61452 22.7988 3.60003C22.8279 3.60003 22.8425 3.60003 22.8717 3.60003L24.6647 3.67248C24.7376 3.67248 24.7959 3.6435 24.825 3.58553L25.6705 2.00594C25.9038 1.57119 26.4431 1.39729 26.895 1.62916C26.9096 1.64365 26.9387 1.65814 26.9533 1.65814L28.4839 2.61459C28.5422 2.64357 28.6151 2.64357 28.6734 2.61459L30.2041 1.65814C30.6268 1.39729 31.1807 1.51322 31.4431 1.93348C31.4577 1.94797 31.4723 1.97696 31.4723 1.99145L32.3178 3.57104C32.3469 3.62901 32.4052 3.67248 32.4781 3.65799L34.2711 3.58553C34.7668 3.57104 35.1895 3.94783 35.2041 4.45503C35.2041 4.48402 35.2041 4.49851 35.2041 4.52749L35.1312 6.30997C35.1312 6.38243 35.1603 6.4404 35.2187 6.46938L36.8076 7.3099C37.2449 7.54176 37.4198 8.07796 37.1866 8.5272C37.172 8.54169 37.1574 8.57067 37.1574 8.58517L36.1953 10.1068C36.1662 10.1648 36.1662 10.2372 36.1953 10.2952L37.1574 11.8168C37.4198 12.2371 37.3032 12.7878 36.8805 13.0486C36.8659 13.0631 36.8367 13.0776 36.8222 13.0776L35.2332 13.9181C35.1749 13.9471 35.1458 14.0051 35.1458 14.0775L35.2187 15.86C35.2332 16.3527 34.8542 16.773 34.344 16.7875C34.3149 16.7875 34.3003 16.7875 34.2711 16.7875L32.4781 16.715C32.4052 16.715 32.3469 16.744 32.3178 16.802L31.4723 18.3815C31.3119 18.6569 31.0058 18.8453 30.6705 18.8453ZM28.586 17.0048C28.7609 17.0048 28.9213 17.0483 29.067 17.1353L30.5831 18.0917C30.6705 18.1497 30.7726 18.1207 30.8163 18.0337V18.0193L31.6618 16.4397C31.8221 16.1353 32.1428 15.9469 32.4927 15.9614L34.2857 16.0339C34.3294 16.0339 34.3877 16.0194 34.4169 15.9904C34.4461 15.9614 34.4752 15.9035 34.4606 15.86L34.3877 14.0775C34.3732 13.7297 34.5627 13.4109 34.8688 13.2515L36.4577 12.411C36.5452 12.3675 36.5743 12.2661 36.5306 12.1791V12.1646L35.5685 10.643C35.379 10.3532 35.379 9.97637 35.5685 9.68653L36.5306 8.16491C36.5889 8.07796 36.5598 7.97652 36.4723 7.93304H36.4577L34.8688 7.09252C34.5627 6.93311 34.3732 6.6143 34.3877 6.2665L34.4606 4.48402C34.4606 4.44054 34.4461 4.38258 34.4169 4.35359C34.3877 4.32461 34.3294 4.29563 34.2857 4.31012L32.5073 4.36808C32.1574 4.38258 31.8367 4.19418 31.6764 3.88986L30.8309 2.31027C30.7872 2.22331 30.6851 2.19433 30.5976 2.23781H30.5831L29.0525 3.19426C28.7609 3.38265 28.3819 3.38265 28.0904 3.19426L26.5597 2.23781C26.4723 2.17984 26.3702 2.20882 26.3265 2.29577V2.31027L25.481 3.88986C25.3207 4.19418 25 4.38258 24.6501 4.36808L22.8571 4.29563C22.8134 4.29563 22.7551 4.31012 22.7259 4.3391C22.6968 4.36808 22.6676 4.42605 22.6822 4.46953L22.7551 6.252C22.7696 6.5998 22.5801 6.91862 22.274 7.07803L20.6851 7.91855C20.5976 7.96202 20.5685 8.06347 20.6122 8.15042V8.16491L21.5743 9.68653C21.7638 9.97637 21.7638 10.3532 21.5743 10.643L20.6122 12.1646C20.5539 12.2516 20.583 12.353 20.6705 12.3965H20.6851L22.274 13.237C22.5801 13.3964 22.7696 13.7152 22.7551 14.063L22.6822 15.8455C22.6822 15.889 22.6968 15.9469 22.7259 15.9759C22.7551 16.0049 22.8134 16.0339 22.8571 16.0194L24.6501 15.9469C25 15.9325 25.3207 16.1208 25.481 16.4252L26.3265 18.0048C26.3702 18.0917 26.4723 18.1207 26.5597 18.0772H26.5743L28.1049 17.1208C28.2361 17.0483 28.4111 17.0048 28.586 17.0048Z" fill="#231F20"/>
<path d="M4.1108 14.4541H0.364433C0.16035 14.4541 0 14.2947 0 14.0918C0 13.8889 0.16035 13.7295 0.364433 13.7295H4.1108C4.31488 13.7295 4.47523 13.8889 4.47523 14.0918C4.47523 14.2947 4.31488 14.4541 4.1108 14.4541Z" fill="#231F20"/>
<path d="M4.1108 18.497H0.364433C0.16035 18.497 0 18.3376 0 18.1348C0 17.9319 0.16035 17.7725 0.364433 17.7725H4.1108C4.31488 17.7725 4.47523 17.9319 4.47523 18.1348C4.47523 18.3376 4.31488 18.497 4.1108 18.497Z" fill="#231F20"/>
<path d="M4.1108 22.5547H0.364433C0.16035 22.5547 0 22.3953 0 22.1924C0 21.9895 0.16035 21.8301 0.364433 21.8301H4.1108C4.31488 21.8301 4.47523 21.9895 4.47523 22.1924C4.47523 22.3953 4.31488 22.5547 4.1108 22.5547Z" fill="#231F20"/>
<path d="M4.1108 26.5986H0.364433C0.16035 26.5986 0 26.4392 0 26.2363C0 26.0334 0.16035 25.874 0.364433 25.874H4.1108C4.31488 25.874 4.47523 26.0334 4.47523 26.2363C4.47523 26.4392 4.31488 26.5986 4.1108 26.5986Z" fill="#231F20"/>
<path d="M4.1108 30.6562H0.364433C0.16035 30.6562 0 30.4968 0 30.2939C0 30.091 0.16035 29.9316 0.364433 29.9316H4.1108C4.31488 29.9316 4.47523 30.091 4.47523 30.2939C4.47523 30.4968 4.31488 30.6562 4.1108 30.6562Z" fill="#231F20"/>
<path d="M4.1108 34.6992H0.364433C0.16035 34.6992 0 34.5398 0 34.3369C0 34.134 0.16035 33.9746 0.364433 33.9746H4.1108C4.31488 33.9746 4.47523 34.134 4.47523 34.3369C4.47523 34.5398 4.31488 34.6992 4.1108 34.6992Z" fill="#231F20"/>
<path d="M31.0495 37.7282H8.27979C7.06987 37.7282 6.07861 36.7427 6.07861 35.5399V12.8894C6.07861 11.6866 7.06987 10.7012 8.27979 10.7012H20.8746C21.0787 10.7012 21.239 10.8606 21.239 11.0635C21.239 11.1359 21.2244 11.1939 21.1807 11.2519L20.6122 12.1503C20.5539 12.2373 20.583 12.3387 20.6705 12.3822H20.6851L22.274 13.2227C22.5801 13.3821 22.7696 13.701 22.755 14.0488L22.6822 15.8312C22.6822 15.8747 22.6967 15.9327 22.7259 15.9617C22.755 15.9906 22.8134 16.0196 22.8571 16.0051L24.6501 15.9327C25 15.9182 25.3207 16.1066 25.481 16.4109L26.3265 17.9905C26.3702 18.0774 26.4723 18.1064 26.5597 18.0629H26.5743L28.1049 17.1065C28.3965 16.9181 28.7755 16.9181 29.067 17.1065L30.5831 18.0629C30.6705 18.1209 30.7726 18.0919 30.8163 18.005V17.9905L31.6618 16.4109C31.8221 16.1066 32.1428 15.9182 32.4927 15.9327L32.9008 15.9472C33.0904 15.9472 33.2507 16.1211 33.2507 16.3095V35.5109C33.2507 36.7427 32.274 37.7282 31.0495 37.7282ZM8.27979 11.4258C7.46346 11.4258 6.80748 12.0779 6.80748 12.8894V35.5399C6.80748 36.3515 7.46346 37.0036 8.27979 37.0036H31.0495C31.8659 37.0036 32.5218 36.3515 32.5218 35.5399V16.7007H32.4635C32.3906 16.7007 32.3323 16.7297 32.3032 16.7877L31.4577 18.3673C31.2245 18.802 30.6851 18.9759 30.2332 18.7441C30.2186 18.7296 30.1895 18.7151 30.1749 18.7151L28.6443 17.7586C28.586 17.7296 28.5131 17.7296 28.4548 17.7586L26.9242 18.7151C26.5014 18.9759 25.9475 18.86 25.6851 18.4397C25.6705 18.4252 25.6559 18.3963 25.6559 18.3818L24.8104 16.8022C24.7813 16.7442 24.723 16.7007 24.6501 16.7152L22.8571 16.7877C22.3615 16.8022 21.9387 16.4254 21.9241 15.9182C21.9241 15.8892 21.9241 15.8747 21.9241 15.8457L21.997 14.0632C21.997 13.9908 21.9679 13.9328 21.9096 13.9038L20.3206 13.0633C19.8833 12.8315 19.7084 12.2953 19.9416 11.846C19.9562 11.8315 19.9708 11.8025 19.9708 11.788L20.1894 11.4402L8.27979 11.4258Z" fill="#231F20"/>
<path d="M23.4985 21.9032H15.8454C15.6413 21.9032 15.481 21.7438 15.481 21.541V11.0635C15.481 10.8606 15.6413 10.7012 15.8454 10.7012H20.8746C21.0786 10.7012 21.239 10.8606 21.239 11.0635C21.239 11.1359 21.2244 11.1939 21.1807 11.2519L20.6122 12.1503C20.5539 12.2373 20.583 12.3387 20.6705 12.3822H20.6851L22.274 13.2227C22.5801 13.3821 22.7696 13.701 22.755 14.0488L22.6821 15.8312C22.6821 15.8747 22.6967 15.9327 22.7259 15.9617C22.755 15.9906 22.8133 16.0196 22.8571 16.0051L23.4839 15.9761C23.688 15.9617 23.8483 16.1211 23.8629 16.3239V16.3384V21.512C23.8629 21.7438 23.7026 21.9032 23.4985 21.9032ZM16.1952 21.1787H23.1195V16.7442L22.8716 16.7587C22.376 16.7732 21.9533 16.3964 21.9387 15.8892C21.9387 15.8602 21.9387 15.8457 21.9387 15.8167L22.0116 14.0343C22.0116 13.9618 21.9824 13.9038 21.9241 13.8749L20.3352 13.0343C19.8979 12.8025 19.723 12.2663 19.9562 11.817C19.9708 11.8025 19.9853 11.7736 19.9853 11.7591L20.204 11.4113H16.1952V21.1787Z" fill="#231F20"/>
<path d="M29.4897 35.3078H24.5918C23.8483 35.3078 23.2361 34.6992 23.2361 33.9601V29.0909C23.2361 28.3518 23.8483 27.7432 24.5918 27.7432H29.4897C30.2332 27.7432 30.8454 28.3518 30.8454 29.0909V33.9601C30.8454 34.6992 30.2478 35.3078 29.4897 35.3078ZM24.5918 28.4533C24.2419 28.4533 23.9649 28.7286 23.9649 29.0764V33.9601C23.9649 34.3079 24.2419 34.5832 24.5918 34.5832H29.4897C29.8396 34.5832 30.1166 34.3079 30.1166 33.9601V29.0909C30.1166 28.7431 29.8396 28.4677 29.4897 28.4677L24.5918 28.4533Z" fill="#231F20"/>
<path d="M28.5132 30.3222H25.5832C25.3791 30.3222 25.2188 30.1628 25.2188 29.9599C25.2188 29.7571 25.3791 29.5977 25.5832 29.5977H28.5132C28.7173 29.5977 28.8777 29.7571 28.8777 29.9599C28.8777 30.1628 28.7027 30.3222 28.5132 30.3222Z" fill="#231F20"/>
<path d="M28.5132 31.873H25.5832C25.3791 31.873 25.2188 31.7136 25.2188 31.5107C25.2188 31.3078 25.3791 31.1484 25.5832 31.1484H28.5132C28.7173 31.1484 28.8777 31.3078 28.8777 31.5107C28.8777 31.7136 28.7027 31.873 28.5132 31.873Z" fill="#231F20"/>
<path d="M28.5132 33.4238H25.5832C25.3791 33.4238 25.2188 33.2644 25.2188 33.0615C25.2188 32.8586 25.3791 32.6992 25.5832 32.6992H28.5132C28.7173 32.6992 28.8777 32.8586 28.8777 33.0615C28.8777 33.2644 28.7027 33.4238 28.5132 33.4238Z" fill="#231F20"/>
<path d="M19.6648 21.9032H15.831C15.6269 21.9032 15.4666 21.7438 15.4666 21.541V11.0635C15.4666 10.8606 15.6269 10.7012 15.831 10.7012H19.6648C19.8689 10.7012 20.0292 10.8606 20.0292 11.0635V21.541C20.0292 21.7438 19.8689 21.9032 19.6648 21.9032ZM16.1954 21.1787H19.3004V11.4258H16.1954V21.1787Z" fill="#231F20"/>
</svg>
