<svg width="43" height="40" viewBox="0 0 43 40" fill="none" xmlns="http://www.w3.org/2000/svg">
<path d="M21.9994 1.67508L24.173 4.17774L27.1157 2.71786C27.747 2.40468 28.5035 2.72581 28.7338 3.40468L29.8073 6.56922L33.0712 6.3745C33.7713 6.33273 34.3504 6.92604 34.3095 7.64346L34.1195 10.988L37.2077 12.088C37.8701 12.324 38.1835 13.0992 37.878 13.7461L36.4533 16.7616L38.8956 18.9889C39.4195 19.4667 39.4195 20.3058 38.8956 20.7835L36.4533 23.0108L37.878 26.0263C38.1836 26.6731 37.8702 27.4483 37.2077 27.6843L34.1195 28.7844L34.3095 32.1289C34.3503 32.8463 33.7713 33.4397 33.0712 33.3979L29.8073 33.2031L28.7338 36.3677C28.5035 37.0465 27.747 37.3676 27.1157 37.0545L24.173 35.5946L21.9994 38.0973C21.5331 38.6341 20.7143 38.6341 20.2481 38.0973L18.0745 35.5946L15.1318 37.0545C14.5006 37.3677 13.744 37.0466 13.5137 36.3677L12.4402 33.2031L9.17632 33.3979C8.4762 33.4396 7.89712 32.8463 7.93796 32.1289L8.12799 28.7844L5.03978 27.6843C4.37736 27.4483 4.06398 26.6732 4.36952 26.0263L5.79419 23.0108L3.35189 20.7835C2.82802 20.3057 2.82802 19.4666 3.35189 18.9889L5.79419 16.7616L4.36952 13.7461C4.0639 13.0993 4.37728 12.324 5.03978 12.088L8.12799 10.988L7.93796 7.64346C7.8972 6.92604 8.4762 6.33265 9.17632 6.3745L12.4402 6.56922L13.5137 3.40468C13.744 2.7259 14.5005 2.40477 15.1318 2.71786L18.0745 4.17774L20.2481 1.67508C20.7143 1.13826 21.5331 1.13826 21.9994 1.67508Z" fill="#FFCF5D"/>
<path d="M38.8952 18.9891L36.4529 16.7618L37.8776 13.7463C38.1832 13.0995 37.8698 12.3242 37.2074 12.0883L34.1192 10.9882L34.3092 7.64368C34.35 6.92626 33.771 6.33295 33.0709 6.37472L29.807 6.56944L28.7335 3.4049C28.5032 2.72612 27.7467 2.40499 27.1154 2.71817L26.0577 3.24298L27.4687 7.40245C27.8321 8.4739 28.8461 9.16833 29.9507 9.10187L31.7528 8.99441L31.6479 10.841C31.5835 11.9735 32.2607 13.012 33.3063 13.3845L35.0114 13.9918L34.2248 15.6567C33.7424 16.6777 33.9803 17.9027 34.8072 18.6568L36.1556 19.8865L34.8072 21.1163C33.9803 21.8704 33.7424 23.0954 34.2248 24.1163L35.0114 25.7813L33.3063 26.3886C32.2607 26.7611 31.5835 27.7996 31.6479 28.932L31.7528 30.7787L29.9507 30.6712C28.8452 30.6063 27.8321 31.2992 27.4687 32.3707L26.876 34.1178L25.2512 33.3118C24.2548 32.8176 23.0593 33.0612 22.3234 33.9086L21.1234 35.2903L19.9233 33.9084C19.1874 33.0611 17.9918 32.8173 16.9955 33.3117L15.3708 34.1176L14.7781 32.3705C14.4146 31.2991 13.4013 30.6063 12.296 30.671L8.0059 30.927L7.93758 32.129C7.89681 32.8465 8.47581 33.4399 9.17593 33.3981L12.4398 33.2034L13.5133 36.3679C13.7436 37.0468 14.5001 37.3678 15.1314 37.0547L18.0741 35.5949L20.2477 38.0976C20.714 38.6344 21.5328 38.6344 21.999 38.0976L24.1726 35.5949L27.1153 37.0547C27.7466 37.3679 28.5031 37.0468 28.7334 36.3679L29.8069 33.2034L33.0708 33.3981C33.7709 33.4399 34.35 32.8466 34.3091 32.129L34.1191 28.7845L37.2073 27.6845C37.8697 27.4485 38.1831 26.6733 37.8775 26.0264L36.4528 23.0109L38.8951 20.7836C39.4191 20.306 39.4191 19.4669 38.8952 18.9891Z" fill="#FFB545"/>
<path d="M21.1229 31.9549C27.6272 31.9549 32.9 26.5517 32.9 19.8866C32.9 13.2215 27.6272 7.81836 21.1229 7.81836C14.6185 7.81836 9.3457 13.2215 9.3457 19.8866C9.3457 26.5517 14.6185 31.9549 21.1229 31.9549Z" fill="#FFB545"/>
<path d="M40.3899 27.4964H1.85635C1.17281 27.4964 0.618652 26.9286 0.618652 26.2281V21.155C0.618652 20.4546 1.17281 19.8867 1.85635 19.8867H40.3899C41.0735 19.8867 41.6276 20.4546 41.6276 21.155V26.2281C41.6276 26.9286 41.0735 27.4964 40.3899 27.4964Z" fill="#5C87BD"/>
<path d="M15.5241 16.758H15.3179V13.5876C15.3179 13.0229 14.6494 12.7416 14.2617 13.1393L13.4366 13.9846C13.195 14.2324 13.195 14.6338 13.4366 14.8813C13.6108 15.0596 13.8628 15.1093 14.0804 15.0311V16.758H13.8741C13.5325 16.758 13.2554 17.0417 13.2554 17.392C13.2554 17.7423 13.5324 18.0261 13.8741 18.0261H15.5241C15.8659 18.0261 16.143 17.7423 16.143 17.392C16.143 17.0417 15.8659 16.758 15.5241 16.758Z" fill="black"/>
<path d="M18.7053 12.9541C17.6818 12.9541 16.8491 13.8074 16.8491 14.8563V16.1244C16.8491 17.1732 17.6818 18.0266 18.7053 18.0266C19.729 18.0266 20.5617 17.1732 20.5617 16.1244V14.8563C20.5617 13.8073 19.729 12.9541 18.7053 12.9541ZM19.3242 16.1245C19.3242 16.4742 19.0466 16.7585 18.7053 16.7585C18.3642 16.7585 18.0867 16.4742 18.0867 16.1245V14.8564C18.0867 14.5067 18.3642 14.2223 18.7053 14.2223C19.0466 14.2223 19.3242 14.5067 19.3242 14.8564V16.1245Z" fill="black"/>
<path d="M23.1267 12.9541C22.1031 12.9541 21.2705 13.8074 21.2705 14.8563V16.1244C21.2705 17.1732 22.1031 18.0266 23.1267 18.0266C24.1504 18.0266 24.9831 17.1732 24.9831 16.1244V14.8563C24.9831 13.8073 24.1505 12.9541 23.1267 12.9541ZM23.7456 16.1245C23.7456 16.4742 23.468 16.7585 23.1267 16.7585C22.7856 16.7585 22.508 16.4742 22.508 16.1245V14.8564C22.508 14.5067 22.7856 14.2223 23.1267 14.2223C23.468 14.2223 23.7456 14.5067 23.7456 14.8564V16.1245Z" fill="black"/>
<path d="M26.3097 14.2212C26.6514 14.2212 26.9285 13.9374 26.9285 13.5872C26.9285 13.2369 26.6514 12.9531 26.3097 12.9531C25.9679 12.9531 25.6909 13.2369 25.6909 13.5872C25.6909 13.9373 25.9679 14.2212 26.3097 14.2212Z" fill="black"/>
<path d="M28.6727 13.032C28.3738 12.862 27.9972 12.9723 27.8313 13.2784L25.7689 17.0826C25.6029 17.3887 25.7106 17.7748 26.0093 17.9448C26.3064 18.1138 26.6839 18.0058 26.8508 17.6983L28.9131 13.8943C29.079 13.5881 28.9714 13.2022 28.6727 13.032Z" fill="black"/>
<path d="M28.3728 16.7568C28.031 16.7568 27.7539 17.0407 27.7539 17.3908C27.7539 17.7411 28.0309 18.0249 28.3728 18.0249C28.7144 18.0249 28.9915 17.7411 28.9915 17.3908C28.9915 17.0407 28.7144 16.7568 28.3728 16.7568Z" fill="black"/>
<path d="M0.618848 21.7888C0.960617 21.7888 1.2377 21.5049 1.2377 21.1546C1.2377 20.8049 1.51527 20.5205 1.85654 20.5205H40.3901C40.7314 20.5205 41.009 20.8049 41.009 21.1546C41.009 21.5049 41.286 21.7888 41.6278 21.7888C41.9697 21.7888 42.2467 21.5049 42.2467 21.1546C42.2467 20.1057 41.4138 19.2522 40.3901 19.2522H39.7959C39.6951 18.9721 39.5286 18.7178 39.3066 18.5153L37.2136 16.6066L38.4344 14.0226C38.9019 13.0333 38.42 11.8488 37.4105 11.4893L34.7641 10.5467L34.9269 7.6805C34.9893 6.58479 34.1034 5.67788 33.0348 5.74163L30.2378 5.90854L29.3179 3.19677C28.9665 2.16025 27.8097 1.66942 26.8457 2.14739L24.3239 3.39843L22.4614 1.25376C21.7483 0.43284 20.4971 0.434446 19.7855 1.25376L17.9229 3.39843L15.4011 2.14739C14.4393 1.67018 13.281 2.15822 12.9288 3.1966L12.0089 5.90854L9.212 5.74163C8.14527 5.67754 7.25752 6.5831 7.31981 7.6805L7.48269 10.5467L4.83642 11.4893C3.82464 11.8494 3.3459 13.0351 3.81235 14.0226L5.03313 16.6066L2.94019 18.5153C2.71814 18.7179 2.55163 18.9721 2.45088 19.2522H1.85654C0.832804 19.2522 0 20.1057 0 21.1546C0 21.5049 0.277079 21.7888 0.618848 21.7888ZM6.20531 17.2354C6.41209 17.047 6.4715 16.7406 6.35095 16.4854L4.92628 13.4701C4.78188 13.1644 4.929 12.7991 5.24263 12.6873L8.33076 11.5872C8.59216 11.4942 8.76148 11.2345 8.74539 10.9514L8.55536 7.60677C8.53614 7.26882 8.80711 6.98844 9.13997 7.00772L12.4039 7.20244C12.6808 7.21893 12.9335 7.04543 13.0244 6.77765L14.0979 3.61311C14.2064 3.29333 14.5621 3.14004 14.8618 3.28894L17.8045 4.74882C18.0534 4.87218 18.3525 4.81139 18.5365 4.59958L20.7099 2.09683C20.9303 1.84317 21.316 1.84267 21.5368 2.09683L23.7104 4.59958C23.8944 4.81139 24.1934 4.87226 24.4423 4.74882L27.3851 3.28885C27.684 3.14072 28.04 3.29223 28.1489 3.61311L29.2224 6.77765C29.3133 7.04543 29.5668 7.21902 29.8429 7.20244L33.1069 7.00772C33.4388 6.98844 33.7108 7.2678 33.6915 7.60677L33.5014 10.9514C33.4854 11.2345 33.6546 11.4942 33.916 11.5872L37.0043 12.6873C37.3171 12.7988 37.4655 13.1636 37.3206 13.47L35.8959 16.4854C35.7753 16.7407 35.8348 17.047 36.0415 17.2354L38.253 19.2523H9.98251C10.3002 13.2891 15.1274 8.45238 21.1233 8.45238H21.1275C26.3596 8.45238 30.9482 12.2582 32.0373 17.5013C32.0976 17.792 32.3525 18.0034 32.6422 18.0034C32.6859 18.0034 32.7288 17.9992 32.7717 17.989C33.1051 17.9164 33.3188 17.579 33.2478 17.2374C33.2478 17.2365 33.2478 17.2365 33.2478 17.2356C32.0522 11.4843 27.0596 7.18401 21.1234 7.18401C14.5065 7.18401 9.06414 12.5299 8.74267 19.2522H3.99388L6.20531 17.2354Z" fill="black"/>
<path d="M41.6278 25.5938C41.286 25.5938 41.009 25.8776 41.009 26.2279C41.009 26.5776 40.7314 26.862 40.3901 26.862H1.85654C1.51527 26.862 1.2377 26.5776 1.2377 26.2279C1.2377 25.8776 0.960617 25.5938 0.618848 25.5938C0.277079 25.5938 0 25.8776 0 26.2279C0 27.2769 0.832804 28.1303 1.85654 28.1303H6.614L7.49367 29.0317L7.31981 32.0922C7.25776 33.1853 8.1404 34.0949 9.212 34.0311L12.0089 33.8642L12.9288 36.576C13.2805 37.6128 14.4374 38.1035 15.4011 37.6254L17.9228 36.3744L19.7855 38.519C20.4976 39.3389 21.7496 39.3383 22.4614 38.519L24.3239 36.3744L26.8456 37.6254C27.8094 38.1036 28.9664 37.6125 29.3179 36.5762L30.2377 33.8643L33.0347 34.0312C34.1094 34.0952 34.9887 33.1822 34.9269 32.0923L34.753 29.0318L35.6328 28.1304H40.3901C41.4138 28.1304 42.2467 27.2769 42.2467 26.228C42.2467 25.8776 41.9697 25.5938 41.6278 25.5938ZM33.5013 28.8214L33.6913 32.1659C33.7106 32.5039 33.4396 32.7847 33.1067 32.7651L29.8427 32.5703C29.5666 32.5537 29.3132 32.7274 29.2222 32.9951L28.1487 36.1598C28.0397 36.4807 27.6835 36.6322 27.3848 36.4838L24.4421 35.024C24.1929 34.9004 23.8942 34.9614 23.7102 35.1732L21.5366 37.676C21.3162 37.9296 20.9306 37.93 20.7099 37.676L18.5363 35.1732C18.3523 34.9614 18.0534 34.9006 17.8043 35.024L14.8617 36.4839C14.5616 36.6327 14.2062 36.4793 14.0978 36.1597L13.0244 32.9951C12.9335 32.7274 12.6805 32.5531 12.4039 32.5703L9.13997 32.7651C8.80612 32.7838 8.53614 32.5035 8.55536 32.1659L8.74539 28.8214C8.7557 28.6407 8.69011 28.4641 8.56518 28.3361L8.36435 28.1303H28.8461C26.7751 30.172 24.0275 31.3204 21.1233 31.3204C18.5513 31.3204 16.1329 30.4445 14.1294 28.789C13.8669 28.5705 13.4776 28.6082 13.2589 28.8837C13.0452 29.1559 13.0865 29.5558 13.3522 29.7757C13.353 29.7757 13.353 29.7766 13.353 29.7766C15.5165 31.5658 18.2326 32.5888 21.1216 32.5888L21.1233 32.5845L21.1249 32.5888C24.776 32.5888 28.1914 30.9507 30.546 28.1304H33.8822L33.6813 28.3362C33.5566 28.4641 33.491 28.6407 33.5013 28.8214Z" fill="black"/>
<path d="M3.6187 22.4234H4.07277C4.41462 22.4234 4.69161 22.1396 4.69161 21.7892C4.69161 21.439 4.4147 21.1553 4.07277 21.1553H3.6187C2.25393 21.1553 1.14355 22.293 1.14355 23.6914C1.14355 25.09 2.25393 26.2277 3.6187 26.2277C4.27979 26.2277 4.9012 25.9639 5.36872 25.4849C5.83623 25.0058 6.09376 24.369 6.09376 23.6914C6.09376 23.3413 5.81693 23.0574 5.47499 23.0574H4.40298C4.06121 23.0574 3.78414 23.3412 3.78414 23.6914C3.78414 24.0418 4.06113 24.3256 4.40298 24.3256H4.69104C4.63757 24.4204 4.57148 24.5085 4.49383 24.5882C4.25991 24.8277 3.94916 24.9596 3.6187 24.9596C2.93623 24.9596 2.38117 24.3907 2.38117 23.6914C2.38117 22.9923 2.93623 22.4234 3.6187 22.4234Z" fill="black"/>
<path d="M7.20568 21.1553C6.86399 21.1553 6.58691 21.439 6.58691 21.7892V24.0846C6.58691 25.2665 7.53053 26.2277 8.69075 26.2277C9.8508 26.2277 10.7945 25.2665 10.7945 24.0846V21.7892C10.7945 21.4391 10.5175 21.1553 10.1758 21.1553C9.83405 21.1553 9.55697 21.439 9.55697 21.7892V24.0846C9.55697 24.567 9.16833 24.9596 8.69067 24.9596C8.213 24.9596 7.82436 24.567 7.82436 24.0846V21.7892C7.82453 21.439 7.54737 21.1553 7.20568 21.1553Z" fill="black"/>
<path d="M13.1059 21.1553C12.848 21.1553 12.6171 21.3191 12.5265 21.5665L11.1343 25.371C11.0142 25.6989 11.1766 26.0644 11.4964 26.1872C11.8164 26.3099 12.173 26.1441 12.2931 25.8162L12.3746 25.5936H13.8373L13.9188 25.8162C14.0393 26.1459 14.3975 26.3097 14.7154 26.1872C15.0352 26.0644 15.1973 25.6989 15.0774 25.371L13.6852 21.5665C13.5946 21.3191 13.3637 21.1553 13.1059 21.1553ZM12.8384 24.3256L13.1058 23.595L13.373 24.3256H12.8384Z" fill="black"/>
<path d="M19.4898 23.0574C19.4898 22.0087 18.6617 21.1553 17.6439 21.1553H16.4371C16.0954 21.1553 15.8184 21.439 15.8184 21.7892V25.5937C15.8184 25.944 16.0954 26.2277 16.4371 26.2277C16.7788 26.2277 17.056 25.944 17.056 25.5937V24.9596H17.3859L18.4316 26.0401C18.5525 26.1652 18.7118 26.2277 18.871 26.2277C19.0284 26.2277 19.186 26.1664 19.3067 26.0439C19.5493 25.7974 19.5509 25.3958 19.3104 25.1472L18.756 24.5744C19.2014 24.2267 19.4898 23.6762 19.4898 23.0574ZM17.6439 23.6913H17.056V22.4233H17.6439C17.9792 22.4233 18.2522 22.7077 18.2522 23.0574C18.2522 23.407 17.9793 23.6913 17.6439 23.6913Z" fill="black"/>
<path d="M22.1191 21.1553C21.8612 21.1553 21.6303 21.3191 21.5398 21.5665L20.1475 25.371C20.0274 25.6989 20.1897 26.0644 20.5096 26.1872C20.8297 26.3099 21.1862 26.1441 21.3063 25.8162L21.3878 25.5936H22.8506L22.9321 25.8162C23.0252 26.0708 23.261 26.2277 23.5114 26.2277C23.5836 26.2277 23.6571 26.2148 23.7286 26.1872C24.0484 26.0644 24.2106 25.6989 24.0906 25.371L22.6984 21.5665C22.6078 21.3191 22.377 21.1553 22.1191 21.1553ZM21.8517 24.3256L22.119 23.595L22.3863 24.3256H21.8517Z" fill="black"/>
<path d="M27.4716 21.7893V23.6569L25.8667 21.4145C25.7085 21.1936 25.4296 21.1016 25.1753 21.187C24.9209 21.2722 24.749 21.5155 24.749 21.7895V25.5939C24.749 25.9442 25.026 26.2279 25.3678 26.2279C25.7095 26.2279 25.9866 25.9442 25.9866 25.5939V23.7263L27.5914 25.9688C27.9423 26.4591 28.7093 26.2094 28.7093 25.5937V21.7892C28.7092 21.4391 28.4322 21.1553 28.0905 21.1553C27.7486 21.1554 27.4716 21.4391 27.4716 21.7893Z" fill="black"/>
<path d="M31.0833 26.2277C31.4251 26.2277 31.7021 25.944 31.7021 25.5937V22.4234H32.486C32.8277 22.4234 33.1047 22.1396 33.1047 21.7892C33.1047 21.439 32.8277 21.1553 32.486 21.1553H29.6809C29.3391 21.1553 29.062 21.439 29.062 21.7892C29.062 22.1396 29.339 22.4234 29.6809 22.4234H30.4646V25.5937C30.4646 25.944 30.7416 26.2277 31.0833 26.2277Z" fill="black"/>
<path d="M35.9846 22.4234C36.3263 22.4234 36.6033 22.1396 36.6033 21.7892C36.6033 21.439 36.3264 21.1553 35.9846 21.1553H34.087C33.7453 21.1553 33.4683 21.439 33.4683 21.7892V25.5937C33.4683 25.944 33.7453 26.2277 34.087 26.2277H35.9846C36.3263 26.2277 36.6033 25.944 36.6033 25.5937C36.6033 25.2434 36.3263 24.9596 35.9846 24.9596H34.7058V24.3256H35.4896C35.8314 24.3256 36.1083 24.0418 36.1083 23.6914C36.1083 23.3412 35.8314 23.0574 35.4896 23.0574H34.7058V22.4234H35.9846Z" fill="black"/>
<path d="M39.8239 22.4234C40.1657 22.4234 40.4427 22.1396 40.4427 21.7892C40.4427 21.439 40.1658 21.1553 39.8239 21.1553H37.9264C37.5847 21.1553 37.3076 21.439 37.3076 21.7892V25.5937C37.3076 25.944 37.5846 26.2277 37.9264 26.2277H39.8239C40.1657 26.2277 40.4427 25.944 40.4427 25.5937C40.4427 25.2434 40.1657 24.9596 39.8239 24.9596H38.5451V24.3256H39.3289C39.6707 24.3256 39.9476 24.0418 39.9476 23.6914C39.9476 23.3412 39.6707 23.0574 39.3289 23.0574H38.5451V22.4234H39.8239Z" fill="black"/>
</svg>
